<svg width="348" height="78" viewBox="0 0 348 78" fill="none" xmlns="http://www.w3.org/2000/svg">
<path d="M57.8 77.2C54.0667 77.2 51.2333 76 49.3 73.6C47.4333 71.1333 46.1667 66.5667 45.5 59.9C45.1 56.4333 44.7 51.9333 44.3 46.4C39.6333 47.8 34.9333 49.2667 30.2 50.8L26.8 60.2C26.1333 62 25.6667 63.3 25.4 64.1C25.1333 64.8333 24.6333 65.9667 23.9 67.5C23.2333 69.0333 22.6333 70.1667 22.1 70.9C21.6333 71.5667 20.9333 72.4333 20 73.5C19.1333 74.5667 18.2333 75.3333 17.3 75.8C14.9 77 12.3333 77.6 9.6 77.6C6.86667 77.6 4.63333 76.6333 2.9 74.7C1.23333 72.7 0.4 70.2667 0.4 67.4C0.4 66.6 0.466667 65.7667 0.6 64.9C1.46667 58.5 8.03333 52.6667 20.3 47.4C23.7667 38.5333 29.5333 23.6 37.6 2.6C39.7333 1.4 42.4333 0.799998 45.7 0.799998C46.4333 0.799998 47.1333 0.799998 47.8 0.799998C48.4667 0.799998 49.2667 0.799998 50.2 0.799998C51.2 0.799998 52.4333 0.999997 53.9 1.4C53.9667 4.53333 55.5 23.9667 58.5 59.7C58.7667 62.7 59.1333 64.6667 59.6 65.6C60.0667 66.4667 60.8667 66.9 62 66.9C63.8667 66.9 66.3333 65.6333 69.4 63.1C72.5333 60.5667 75.3333 57.4 77.8 53.6L80.6 60.4L78.2 63.6C71.2 72.6667 64.4 77.2 57.8 77.2ZM41.9 18.2L33.2 42.5C37.8667 40.9 41.3333 39.7333 43.6 39L41.9 18.2ZM16.8 56.1C10.6 59.2333 7.5 62.3 7.5 65.3C7.5 67.4333 8.3 68.5 9.9 68.5C11.1 68.5 12.0667 67.6333 12.8 65.9C13.6667 64.0333 15 60.7667 16.8 56.1ZM110.187 26.6C112.187 23.6 113.187 20.8 113.187 18.2C113.187 15.6 112.453 13.5333 110.987 12C109.52 10.4667 107.587 9.7 105.187 9.7C102.787 9.7 100.853 10.3 99.3867 11.5C97.9201 12.6333 97.1867 14.4667 97.1867 17C97.1867 19.4667 98.9201 23.9333 102.387 30.4C105.853 36.8667 108.053 41.0333 108.987 42.9C111.52 47.9667 112.787 52.8667 112.787 57.6C112.787 63.5333 110.62 68.3667 106.287 72.1C102.02 75.7667 96.9534 77.6 91.0867 77.6C85.2867 77.6 80.7201 75.8 77.3867 72.2C74.0534 68.5333 72.3867 64.2667 72.3867 59.4C72.3867 50.4 77.9534 42.9667 89.0867 37.1C84.5534 28.1667 82.2867 21.9333 82.2867 18.4C82.2867 13.4667 84.2534 9.3 88.1867 5.9C92.1867 2.43333 97.0534 0.699999 102.787 0.699999C108.587 0.699999 113.02 2.16666 116.087 5.1C119.153 8.03333 120.687 11.7667 120.687 16.3C120.687 19.3 119.687 22.7333 117.687 26.6H110.187ZM83.9867 65.6C85.7867 67.5333 87.9534 68.5 90.4867 68.5C93.0867 68.5 95.0867 67.7667 96.4867 66.3C97.9534 64.7667 98.6867 62.5333 98.6867 59.6C98.6867 56.9333 97.6534 53.6667 95.5867 49.8C95.3201 49.2667 94.8201 48.3 94.0867 46.9C93.3534 45.4333 92.8201 44.4 92.4867 43.8C85.0201 47.6667 81.2867 52.5333 81.2867 58.4C81.2867 61.4 82.1867 63.8 83.9867 65.6ZM183.215 1.6C184.615 1.06666 186.582 0.799998 189.115 0.799998C191.648 0.799998 193.915 0.966664 195.915 1.3C193.848 16.6333 192.215 30.5333 191.015 43C189.882 55.4 189.248 61.9333 189.115 62.6C189.048 63.2667 189.015 63.8667 189.015 64.4C189.082 66.1333 189.915 67 191.515 67C195.515 67 201.082 62.4 208.215 53.2C209.482 56.7333 210.215 59.1 210.415 60.3C207.215 65.3667 203.348 69.5333 198.815 72.8C194.348 76 190.115 77.6 186.115 77.6C182.115 77.6 179.348 76.5667 177.815 74.5C176.282 72.4333 175.515 70.1333 175.515 67.6C175.515 67 175.582 65.8333 175.715 64.1C175.915 62.3667 177.248 51.5667 179.715 31.7L163.315 69.6H154.815L149.915 32.3L142.915 63.3C141.782 68.2333 139.915 71.8667 137.315 74.2C134.782 76.5333 131.982 77.7 128.915 77.7C125.848 77.7 123.348 76.8 121.415 75C119.348 73.0667 118.315 70.3333 118.315 66.8C118.315 59.7333 123.782 53.7 134.715 48.7C140.648 20.2333 143.848 4.46666 144.315 1.4C145.915 0.999997 148.048 0.799998 150.715 0.799998C153.448 0.799998 155.315 0.866663 156.315 0.999995H157.015L163.215 47.5L183.215 2.1V1.6ZM125.415 65.1C125.415 67.2333 126.248 68.3 127.915 68.3C129.048 68.3 129.982 67.4 130.715 65.6C131.648 63.4 132.415 60.5 133.015 56.9C127.948 59.7667 125.415 62.5 125.415 65.1ZM258.972 77.2C255.239 77.2 252.405 76 250.472 73.6C248.605 71.1333 247.339 66.5667 246.672 59.9C246.272 56.4333 245.872 51.9333 245.472 46.4C240.805 47.8 236.105 49.2667 231.372 50.8L227.972 60.2C227.305 62 226.839 63.3 226.572 64.1C226.305 64.8333 225.805 65.9667 225.072 67.5C224.405 69.0333 223.805 70.1667 223.272 70.9C222.805 71.5667 222.105 72.4333 221.172 73.5C220.305 74.5667 219.405 75.3333 218.472 75.8C216.072 77 213.505 77.6 210.772 77.6C208.039 77.6 205.805 76.6333 204.072 74.7C202.405 72.7 201.572 70.2667 201.572 67.4C201.572 66.6 201.639 65.7667 201.772 64.9C202.639 58.5 209.205 52.6667 221.472 47.4C224.939 38.5333 230.705 23.6 238.772 2.6C240.905 1.4 243.605 0.799998 246.872 0.799998C247.605 0.799998 248.305 0.799998 248.972 0.799998C249.639 0.799998 250.439 0.799998 251.372 0.799998C252.372 0.799998 253.605 0.999997 255.072 1.4C255.139 4.53333 256.672 23.9667 259.672 59.7C259.939 62.7 260.305 64.6667 260.772 65.6C261.239 66.4667 262.039 66.9 263.172 66.9C265.039 66.9 267.505 65.6333 270.572 63.1C273.705 60.5667 276.505 57.4 278.972 53.6L281.772 60.4L279.372 63.6C272.372 72.6667 265.572 77.2 258.972 77.2ZM243.072 18.2L234.372 42.5C239.039 40.9 242.505 39.7333 244.772 39L243.072 18.2ZM217.972 56.1C211.772 59.2333 208.672 62.3 208.672 65.3C208.672 67.4333 209.472 68.5 211.072 68.5C212.272 68.5 213.239 67.6333 213.972 65.9C214.839 64.0333 216.172 60.7667 217.972 56.1ZM344.259 55.5L347.459 60.4C344.192 71.8667 337.425 77.6 327.159 77.6C324.825 77.6 322.792 77.1667 321.059 76.3C319.392 75.4333 318.125 74.4 317.259 73.2C316.392 72 315.692 70.4667 315.159 68.6C314.425 65.8 314.025 62.1 313.959 57.5C313.959 52.9 313.392 49.7333 312.259 48C311.192 46.2667 309.125 45.3 306.059 45.1L307.159 36.6C307.292 36.6 307.392 36.6 307.459 36.6C311.325 36.6 314.525 35.5 317.059 33.3C319.792 30.8333 321.159 27.6667 321.159 23.8C321.159 19.9333 319.325 16.6667 315.659 14C312.059 11.3333 307.392 10 301.659 10C294.259 10 288.559 11.8333 284.559 15.5C282.425 17.5 281.359 19.9 281.359 22.7C281.359 26.2333 284.059 28.3667 289.459 29.1L288.059 36.6C283.992 36.4 280.392 35.0333 277.259 32.5C274.125 29.9667 272.559 26.7 272.559 22.7C272.559 15.7 275.492 10.3333 281.359 6.59999C287.225 2.8 294.659 0.899996 303.659 0.899996C309.459 0.899996 314.559 1.6 318.959 3C326.492 5.53333 331.492 9.93333 333.959 16.2C334.759 18.4 335.159 20.2 335.159 21.6C335.159 22.9333 335.159 23.8333 335.159 24.3C334.892 27.9667 333.525 31.5667 331.059 35.1C328.659 38.6333 325.025 41.0667 320.159 42.4C323.092 43 325.092 44.2667 326.159 46.2C327.225 48.1333 327.792 51.0667 327.859 55C327.925 61.7333 328.225 65.8333 328.759 67.3C329.359 68.7 330.559 69.4 332.359 69.4C337.225 69.4 341.192 64.7667 344.259 55.5ZM282.959 77.6C279.425 77.6 276.592 76.5333 274.459 74.4C272.325 72.2667 271.259 69.6333 271.259 66.5C271.259 58.3667 277.225 51.5667 289.159 46.1C291.559 27.4333 292.792 17.8667 292.859 17.4C295.659 15.6 298.825 14.7 302.359 14.7C303.825 14.7 305.492 14.9 307.359 15.3L301.059 58C299.059 71.0667 293.025 77.6 282.959 77.6ZM278.659 65.3C278.659 67.4333 279.792 68.5 282.059 68.5C284.725 68.5 286.425 66.1 287.159 61.3L288.059 54.5C281.792 58.1667 278.659 61.7667 278.659 65.3Z" fill="#71767B"/>
</svg>
